<svg width="18" height="18" fill="none" xmlns="http://www.w3.org/2000/svg"><path d="M9 4.492a4.493 4.493 0 00-4.492 4.492c0 2.5 1.992 4.492 4.492 4.492a4.493 4.493 0 004.492-4.492c0-2.461-2.031-4.492-4.492-4.492zm0 7.422a2.926 2.926 0 01-2.93-2.93c0-1.602 1.29-2.89 2.93-2.89a2.882 2.882 0 012.89 2.89c0 1.64-1.288 2.93-2.89 2.93zm5.703-7.579a1.05 1.05 0 00-1.055-1.054 1.05 1.05 0 00-1.054 1.054 1.05 1.05 0 001.054 1.055 1.05 1.05 0 001.055-1.055zm2.969 1.055c-.078-1.406-.39-2.656-1.406-3.672C15.25.703 14 .39 12.594.312c-1.446-.078-5.781-.078-7.227 0C3.961.39 2.75.702 1.695 1.718.68 2.734.367 3.984.29 5.39c-.078 1.445-.078 5.781 0 7.227.078 1.406.39 2.617 1.406 3.672 1.055 1.015 2.266 1.328 3.672 1.406 1.446.078 5.781.078 7.227 0 1.406-.078 2.656-.39 3.672-1.406 1.015-1.055 1.328-2.266 1.406-3.672.078-1.446.078-5.782 0-7.227zm-1.875 8.75c-.274.781-.899 1.367-1.64 1.68-1.173.469-3.907.351-5.157.351-1.29 0-4.023.118-5.156-.351a2.962 2.962 0 01-1.68-1.68c-.469-1.133-.352-3.867-.352-5.156 0-1.25-.117-3.984.352-5.156a3.013 3.013 0 011.68-1.641C4.977 1.718 7.71 1.835 9 1.835c1.25 0 3.984-.117 5.156.352.742.273 1.328.898 1.64 1.64.47 1.173.352 3.907.352 5.157 0 1.289.118 4.023-.351 5.156z" fill="#fff"/></svg>