<svg width="20" height="18" fill="none" xmlns="http://www.w3.org/2000/svg"><path d="M17.93 4.921c.78-.586 1.484-1.289 2.03-2.109a7.687 7.687 0 01-2.343.625 4.007 4.007 0 001.797-2.266 8.65 8.65 0 01-2.578 1.016 4.102 4.102 0 00-3.008-1.29A4.101 4.101 0 009.727 5c0 .312.039.625.117.937A11.9 11.9 0 011.367 1.64C1.016 2.226.82 2.93.82 3.71c0 1.407.703 2.657 1.836 3.399-.664-.04-1.328-.195-1.875-.508v.04a4.107 4.107 0 003.281 4.023c-.312.078-.703.156-1.054.156-.274 0-.508-.04-.781-.078.507 1.64 2.03 2.812 3.828 2.851a8.247 8.247 0 01-5.078 1.758c-.352 0-.664-.039-.977-.078 1.797 1.172 3.945 1.836 6.29 1.836 7.538 0 11.64-6.211 11.64-11.64V4.92z" fill="#fff"/></svg>